<svg xmlns="http://www.w3.org/2000/svg" width="20.101" height="16.72" viewBox="0 0 20.101 16.72">
  <path id="_008-twitter" data-name="008-twitter" d="M19.782,36.436A7.959,7.959,0,0,1,18.4,36.9a4.321,4.321,0,0,0,1.141-1.817h0a.227.227,0,0,0-.331-.264h0a8,8,0,0,1-2.119.875.54.54,0,0,1-.132.016.562.562,0,0,1-.371-.142,4.334,4.334,0,0,0-2.867-1.082,4.634,4.634,0,0,0-1.373.212,4.2,4.2,0,0,0-2.83,3.025,4.623,4.623,0,0,0-.1,1.6.155.155,0,0,1-.039.122.161.161,0,0,1-.12.054H9.236a11.363,11.363,0,0,1-7.81-4.173h0a.227.227,0,0,0-.371.029h0a4.339,4.339,0,0,0,.705,5.268,3.883,3.883,0,0,1-.988-.383h0a.227.227,0,0,0-.337.2h0a4.339,4.339,0,0,0,2.531,4H2.873a3.9,3.9,0,0,1-.73-.07h0a.227.227,0,0,0-.258.292h0A4.343,4.343,0,0,0,5.315,47.61,8,8,0,0,1,.836,48.97h-.5a.332.332,0,0,0-.324.25.343.343,0,0,0,.164.379,11.894,11.894,0,0,0,5.977,1.612,12.057,12.057,0,0,0,5.108-1.084A11.279,11.279,0,0,0,15,47.327a12.278,12.278,0,0,0,2.288-3.832,12.107,12.107,0,0,0,.778-4.195v-.066a.737.737,0,0,1,.276-.574,8.565,8.565,0,0,0,1.723-1.891h0a.227.227,0,0,0-.28-.333Z" transform="translate(0 -34.491)" fill="#ecc319"/>
</svg>
