<svg id="_029-instagram" data-name="029-instagram" xmlns="http://www.w3.org/2000/svg" width="19.106" height="19.106" viewBox="0 0 19.106 19.106">
  <path id="Path_3622" data-name="Path 3622" d="M13.414,0H5.692A5.7,5.7,0,0,0,0,5.692v7.722a5.7,5.7,0,0,0,5.692,5.692h7.722a5.7,5.7,0,0,0,5.692-5.692V5.692A5.7,5.7,0,0,0,13.414,0Zm3.77,13.414a3.77,3.77,0,0,1-3.77,3.77H5.692a3.77,3.77,0,0,1-3.77-3.77V5.692a3.77,3.77,0,0,1,3.77-3.77h7.722a3.77,3.77,0,0,1,3.77,3.77v7.722Z" fill="#ecc319"/>
  <path id="Path_3623" data-name="Path 3623" d="M137.941,133a4.941,4.941,0,1,0,4.941,4.941A4.947,4.947,0,0,0,137.941,133Zm0,7.961a3.019,3.019,0,1,1,3.019-3.019A3.019,3.019,0,0,1,137.941,140.961Z" transform="translate(-128.389 -128.389)" fill="#ecc319"/>
  <circle id="Ellipse_7" data-name="Ellipse 7" cx="1.184" cy="1.184" r="1.184" transform="translate(13.32 3.465)" fill="#ecc319"/>
</svg>
