<svg xmlns="http://www.w3.org/2000/svg" width="20.034" height="20.034" viewBox="0 0 20.034 20.034">
  <path id="_036-facebook" data-name="036-facebook" d="M17.336,0H2.7A2.7,2.7,0,0,0,0,2.7V17.334a2.7,2.7,0,0,0,2.7,2.7H9.919l.012-7.159H8.072a.439.439,0,0,1-.439-.437L7.624,10.13a.439.439,0,0,1,.439-.441H9.919V7.46a3.643,3.643,0,0,1,3.889-4H15.7a.439.439,0,0,1,.439.439V5.848a.439.439,0,0,1-.439.439H14.54c-1.255,0-1.5.6-1.5,1.472V9.69H15.8a.439.439,0,0,1,.436.491l-.274,2.308a.439.439,0,0,1-.436.387H13.054l-.012,7.159h4.295a2.7,2.7,0,0,0,2.7-2.7V2.7A2.7,2.7,0,0,0,17.336,0Z" transform="translate(-0.002)" fill="#ecc319"/>
</svg>
