<svg id="Page-1" xmlns="http://www.w3.org/2000/svg" width="18.791" height="26.896" viewBox="0 0 18.791 26.896">
  <g id="_013---Water" data-name="013---Water">
    <path id="Shape" d="M.71,21.942a.431.431,0,0,0,.022.051,9.508,9.508,0,0,0,3.44,4.262,9.368,9.368,0,0,0,5.233,1.638h.019a9.368,9.368,0,0,0,5.232-1.637,9.514,9.514,0,0,0,3.426-4.228.441.441,0,0,0,.059-.134,9.48,9.48,0,0,0,.652-4.1.411.411,0,0,0,0-.062,9.254,9.254,0,0,0-.229-1.5,11.318,11.318,0,0,0-2.741-4.755c-.214-.251-.431-.5-.648-.749A25.79,25.79,0,0,1,12.349,7.06a22.356,22.356,0,0,1-2.278-5.568.683.683,0,0,0-1.313,0A22.356,22.356,0,0,1,6.483,7.059a25.8,25.8,0,0,1-2.824,3.666q-.325.374-.649.749A11.332,11.332,0,0,0,.27,16.229a9.207,9.207,0,0,0-.23,1.524v.013a9.482,9.482,0,0,0,.67,4.176ZM.92,18.6a2.791,2.791,0,0,0,3.858,0,1.9,1.9,0,0,1,2.718,0,2.786,2.786,0,0,0,3.855,0,1.9,1.9,0,0,1,2.718,0,2.787,2.787,0,0,0,3.844.011,8.6,8.6,0,0,1-.583,2.9A1.852,1.852,0,0,1,16,22.066a1.885,1.885,0,0,1-1.361-.572,2.786,2.786,0,0,0-3.855,0,1.9,1.9,0,0,1-2.718,0,2.785,2.785,0,0,0-3.855,0,1.9,1.9,0,0,1-2.714.005,8.6,8.6,0,0,1-.576-2.9Zm13.231,6.914A8.464,8.464,0,0,1,9.424,27H9.415a8.446,8.446,0,0,1-4.737-1.482,8.577,8.577,0,0,1-2.489-2.625,2.847,2.847,0,0,0,.66.074,2.769,2.769,0,0,0,1.927-.775,1.9,1.9,0,0,1,2.718,0,2.786,2.786,0,0,0,3.855,0,1.9,1.9,0,0,1,2.718,0A2.769,2.769,0,0,0,16,22.963a2.911,2.911,0,0,0,.642-.068,8.585,8.585,0,0,1-2.487,2.623ZM3.69,12.057c.213-.248.429-.5.644-.743a26.526,26.526,0,0,0,2.92-3.8,22.523,22.523,0,0,0,2.16-5.057,22.533,22.533,0,0,0,2.161,5.058,26.446,26.446,0,0,0,2.92,3.8q.323.371.644.743a10.561,10.561,0,0,1,2.55,4.381,8.4,8.4,0,0,1,.179,1.092,4.991,4.991,0,0,0-.517.381,1.905,1.905,0,0,1-2.719,0,2.786,2.786,0,0,0-3.855,0,1.9,1.9,0,0,1-2.718,0,2.785,2.785,0,0,0-3.855,0,1.908,1.908,0,0,1-2.723,0,4.911,4.911,0,0,0-.526-.388,8.363,8.363,0,0,1,.179-1.084A10.618,10.618,0,0,1,3.69,12.057Z" transform="translate(-0.02 -0.998)" fill="#fff"/>
    <path id="Shape-2" data-name="Shape" d="M4.784,28.025a.441.441,0,0,0,.1.013.448.448,0,0,0,.435-.343,8.694,8.694,0,0,1,2.169-3.631c.209-.246.419-.486.635-.733l.052-.06c.526-.608,1.07-1.237,1.6-1.891a.448.448,0,1,0-.7-.563c-.519.642-1.057,1.265-1.579,1.868l-.051.058c-.217.248-.428.493-.639.738a9.463,9.463,0,0,0-2.359,4.006A.448.448,0,0,0,4.784,28.025Z" transform="translate(-2.459 -11.837)" fill="#fff"/>
    <path id="Shape-3" data-name="Shape" d="M17.322,17.329a.448.448,0,0,0,.619-.134q.148-.231.289-.469a.448.448,0,1,0-.772-.455q-.131.224-.271.44A.448.448,0,0,0,17.322,17.329Z" transform="translate(-9.453 -9.297)" fill="#fff"/>
  </g>
</svg>
