<svg id="_013---Water" data-name="013---Water" xmlns="http://www.w3.org/2000/svg" width="28.105" height="40.226" viewBox="0 0 28.105 40.226">
  <path id="Shape" d="M1.052,32.322a.644.644,0,0,0,.034.076,14.221,14.221,0,0,0,5.145,6.375,14.012,14.012,0,0,0,7.826,2.45h.028a14.012,14.012,0,0,0,7.825-2.449,14.23,14.23,0,0,0,5.124-6.323.659.659,0,0,0,.088-.2,14.179,14.179,0,0,0,.975-6.133.614.614,0,0,0,0-.093,13.841,13.841,0,0,0-.342-2.247,16.928,16.928,0,0,0-4.1-7.111c-.32-.375-.645-.748-.969-1.12a38.574,38.574,0,0,1-4.224-5.483,33.437,33.437,0,0,1-3.406-8.327,1.021,1.021,0,0,0-1.964,0,33.437,33.437,0,0,1-3.4,8.323,38.585,38.585,0,0,1-4.224,5.483q-.487.56-.97,1.121a16.949,16.949,0,0,0-4.1,7.111,13.77,13.77,0,0,0-.343,2.279v.019a14.181,14.181,0,0,0,1,6.246Zm.314-4.992a4.175,4.175,0,0,0,5.77,0,2.846,2.846,0,0,1,4.065,0,4.167,4.167,0,0,0,5.766,0,2.847,2.847,0,0,1,4.065,0,4.168,4.168,0,0,0,5.749.017,12.867,12.867,0,0,1-.872,4.341,2.769,2.769,0,0,1-2,.821,2.82,2.82,0,0,1-2.036-.855,4.167,4.167,0,0,0-5.766,0,2.847,2.847,0,0,1-4.065,0,4.166,4.166,0,0,0-5.766,0,2.847,2.847,0,0,1-4.059.008,12.865,12.865,0,0,1-.862-4.333Zm19.789,10.34a12.659,12.659,0,0,1-7.07,2.212h-.014a12.632,12.632,0,0,1-7.085-2.217A12.828,12.828,0,0,1,3.263,33.74a4.258,4.258,0,0,0,.987.11,4.142,4.142,0,0,0,2.883-1.158,2.846,2.846,0,0,1,4.065,0,4.167,4.167,0,0,0,5.766,0,2.847,2.847,0,0,1,4.065,0,4.142,4.142,0,0,0,2.885,1.158,4.354,4.354,0,0,0,.961-.1,12.84,12.84,0,0,1-3.719,3.923ZM5.509,17.538c.318-.371.641-.741.963-1.112a39.674,39.674,0,0,0,4.368-5.68,33.687,33.687,0,0,0,3.231-7.564A33.7,33.7,0,0,0,17.3,10.747a39.554,39.554,0,0,0,4.367,5.68q.483.555.963,1.112a15.8,15.8,0,0,1,3.813,6.552,12.559,12.559,0,0,1,.268,1.634,7.464,7.464,0,0,0-.773.57,2.849,2.849,0,0,1-4.066,0,4.167,4.167,0,0,0-5.766,0,2.847,2.847,0,0,1-4.065,0,4.166,4.166,0,0,0-5.766,0,2.854,2.854,0,0,1-4.072,0,7.345,7.345,0,0,0-.786-.58,12.508,12.508,0,0,1,.268-1.622,15.881,15.881,0,0,1,3.82-6.554Z" transform="translate(-0.02 -0.998)" fill="#ecc319"/>
  <path id="Shape-2" data-name="Shape" d="M4.955,31.684a.66.66,0,0,0,.157.019.67.67,0,0,0,.651-.514c.461-1.919,1.538-3.445,3.244-5.43.313-.367.627-.727.949-1.1l.077-.09c.787-.909,1.6-1.85,2.391-2.828a.67.67,0,1,0-1.043-.842C10.6,21.862,9.8,22.794,9.019,23.7l-.076.087c-.324.371-.64.737-.956,1.1-1.838,2.145-3,3.811-3.528,5.992a.67.67,0,0,0,.5.805Z" transform="translate(-1.477 -7.473)" fill="#ecc319"/>
  <path id="Shape-3" data-name="Shape" d="M17.424,17.968a.67.67,0,0,0,.927-.2q.222-.346.432-.7a.67.67,0,1,0-1.154-.681q-.2.335-.406.658A.67.67,0,0,0,17.424,17.968Z" transform="translate(-5.655 -5.956)" fill="#ecc319"/>
</svg>
