<svg id="Group_4787" data-name="Group 4787" xmlns="http://www.w3.org/2000/svg" width="40.738" height="40.729" viewBox="0 0 40.738 40.729">
  <g id="Page-1" transform="translate(0 0)">
    <g id="_033---Pump" data-name="033---Pump">
      <path id="Shape" d="M42.364,33.432A1.378,1.378,0,0,0,42,34.467l.329,4.036c.343,4.2.343,4.2.512,6.314l.422,5.262a1.348,1.348,0,0,0,1.358,1.251H51.6a1.346,1.346,0,0,0,1.358-1.249l.294-3.641c.358-4.444.679-8.453.969-11.982A1.363,1.363,0,0,0,52.861,33h-9.5a1.358,1.358,0,0,0-.993.432ZM51.6,49.973H44.615l-.422-5.263c-.059-.739-.1-1.222-.136-1.712.176.015.352.029.53.029a6.763,6.763,0,0,0,1.3-.127,9.007,9.007,0,0,0,2.32-.915,5.077,5.077,0,0,1,2.733-.822,3.526,3.526,0,0,1,1.339.432q-.183,2.277-.382,4.737Zm1.264-15.615q-.221,2.707-.47,5.793a4.847,4.847,0,0,0-1.311-.339,6.129,6.129,0,0,0-3.492.961,7.845,7.845,0,0,1-1.969.793,5.28,5.28,0,0,1-1.678.058c-.058-.722-.136-1.694-.263-3.232l-.322-4.033Z" transform="translate(-13.484 -10.602)" fill="#aeadae"/>
      <path id="Shape-2" data-name="Shape" d="M2.056,10.866A12.316,12.316,0,0,0,9.09,9.073c.606-.407,1.169-.864,1.629-1.233a15.28,15.28,0,0,1,1.6-1.2,6.626,6.626,0,0,1,1.26-.6V8.829H11.541A2.037,2.037,0,0,0,9.5,10.866V16.3a2.037,2.037,0,0,0,2.037,2.037V33.27h-.679A4.758,4.758,0,0,0,6.11,38.022V38.7a2.037,2.037,0,0,0,2.037,2.037H24.441A2.037,2.037,0,0,0,26.478,38.7v-.679a4.758,4.758,0,0,0-4.752-4.752h-.679V18.334a2.027,2.027,0,0,0,1.507-.679H31.23v1.358a2.037,2.037,0,0,0,2.037,2.037h3.395A2.037,2.037,0,0,0,38.7,19.013v-.679a8.156,8.156,0,0,0-8.147-8.147H22.958a2.037,2.037,0,0,0-1.912-1.358H19.01V5.413a3.36,3.36,0,0,0,.651-1.744c0-.016.013-.028.015-.044a1.67,1.67,0,0,0,.013-.212V3.384a1.356,1.356,0,0,0-.007-.149.594.594,0,0,0-.02-.1A3.374,3.374,0,0,0,13.28,1.874a11.154,11.154,0,0,0-3.118,1.312,19.445,19.445,0,0,0-2.016,1.49c-.475.383-.9.724-1.339,1.024A8.764,8.764,0,0,1,2.017,6.792a2.037,2.037,0,1,0,.039,4.073ZM25.12,38.022V38.7a.679.679,0,0,1-.679.679H8.147a.679.679,0,0,1-.679-.679v-.679a3.4,3.4,0,0,1,3.395-3.395H21.725A3.4,3.4,0,0,1,25.12,38.022ZM19.688,33.27H12.9V18.334h6.789ZM37.34,18.334v.679a.679.679,0,0,1-.679.679H33.267a.679.679,0,0,1-.679-.679V17.655A1.358,1.358,0,0,0,31.23,16.3H23.083V11.544h7.468A6.8,6.8,0,0,1,37.34,18.334ZM21.725,10.866V16.3a.679.679,0,0,1-.679.679h-9.5a.679.679,0,0,1-.679-.679V10.866a.679.679,0,0,1,.679-.679h9.5A.679.679,0,0,1,21.725,10.866ZM14.936,8.829V6.5a3.346,3.346,0,0,0,2.716,0V8.829Zm1.358-7.468a2.037,2.037,0,0,1,2.037,2.022v.026a2.037,2.037,0,1,1-2.037-2.048ZM1.552,8.354a.67.67,0,0,1,.479-.2A10,10,0,0,0,7.572,6.823c.484-.329.934-.69,1.479-1.132a17.909,17.909,0,0,1,1.825-1.351A9.532,9.532,0,0,1,12.9,3.4a3.378,3.378,0,0,0,.278,1.339,8,8,0,0,0-1.58.752,16.3,16.3,0,0,0-1.739,1.3c-.454.368-.97.784-1.529,1.161a11.065,11.065,0,0,1-6.293,1.56.679.679,0,0,1-.485-1.154Z" transform="translate(0 -0.009)" fill="#aeadae"/>
      <path id="Shape-3" data-name="Shape" d="M21.679,31.716a.679.679,0,0,0,.679-.679V29.679a.679.679,0,0,0-1.358,0v1.358A.679.679,0,0,0,21.679,31.716Z" transform="translate(-6.743 -9.318)" fill="#aeadae"/>
      <path id="Shape-4" data-name="Shape" d="M21.679,43.147a.679.679,0,0,0,.679-.679V35.679a.679.679,0,0,0-1.358,0v6.789A.679.679,0,0,0,21.679,43.147Z" transform="translate(-6.743 -11.244)" fill="#aeadae"/>
    </g>
  </g>
</svg>
