<svg id="flash_1_" data-name="flash (1)" xmlns="http://www.w3.org/2000/svg" width="22.913" height="40.364" viewBox="0 0 22.913 40.364">
  <g id="Group_4788" data-name="Group 4788">
    <path id="Path_5160" data-name="Path 5160" d="M133.521,13.858a.647.647,0,0,0-.605-.4h-7.938l7.871-12.446a.611.611,0,0,0,0-.673A.707.707,0,0,0,132.243,0H121.479a.707.707,0,0,0-.605.336L110.783,20.519a.611.611,0,0,0,0,.673.8.8,0,0,0,.605.336h6.929L110.783,39.49a.671.671,0,0,0,.269.807.5.5,0,0,0,.336.067.764.764,0,0,0,.538-.2L133.454,14.6A.722.722,0,0,0,133.521,13.858Zm-19.778,22,6.189-14.8a.654.654,0,0,0-.067-.605.83.83,0,0,0-.538-.269h-6.862l9.418-18.837h9.149l-7.938,12.446a.611.611,0,0,0,0,.673.707.707,0,0,0,.605.336h7.8Z" transform="translate(-110.682)" fill="#aeadae"/>
  </g>
</svg>
