<svg id="_017---Greenbelt" data-name="017---Greenbelt" xmlns="http://www.w3.org/2000/svg" width="26.806" height="26.778" viewBox="0 0 26.806 26.778">
  <path id="Shape" d="M2.449,24.147a42.432,42.432,0,0,1,12.292-6.861.893.893,0,0,0,.1-1.626,23.829,23.829,0,0,0-3.573-1.407v-2.2A3.573,3.573,0,1,0,9.886,5.07,4.467,4.467,0,1,0,5.013,8.96v4.261a19.4,19.4,0,0,0-3.256.17.893.893,0,0,0-.764.893v9.174a.893.893,0,0,0,1.456.688ZM13.5,8.514a2.68,2.68,0,0,1-2.233,2.64V10.037l1.21-1.206a.448.448,0,0,0-.634-.634l-.576.581v-.71a.447.447,0,0,0-.893,0V9.224L9.8,8.643a.448.448,0,1,0-.634.634l1.21,1.206v.67A2.68,2.68,0,1,1,13.5,8.514ZM1.886,4.494A3.573,3.573,0,1,1,8.872,5.521,3.573,3.573,0,0,0,7.4,7.482a3.377,3.377,0,0,1-1.492.549V5.57l1.21-1.206a.448.448,0,0,0-.634-.634l-.576.581V3.6a.447.447,0,0,0-.893,0V6.1l-.576-.581a.448.448,0,1,0-.634.634l1.21,1.206v.679A3.573,3.573,0,0,1,1.886,4.494ZM5.906,8.96a4.467,4.467,0,0,0,1.34-.353,3.573,3.573,0,0,0,3.127,3.471V14a23.673,23.673,0,0,0-4.467-.737Zm-4.02,5.288A18.729,18.729,0,0,1,5.08,14.1a.447.447,0,0,0,.737.036,22.78,22.78,0,0,1,4.556.773v.755a.447.447,0,0,0,.893,0v-.491a23.548,23.548,0,0,1,3.176,1.273A43.362,43.362,0,0,0,1.886,23.459Z" transform="translate(-0.987 -0.049)" fill="#fff"/>
  <path id="Shape-2" data-name="Shape" d="M29.3,13.44a4.467,4.467,0,1,0-8.893.576A3.573,3.573,0,1,0,19.023,21v1.269a42.044,42.044,0,0,0-14.99,7.9A.893.893,0,0,0,4.6,31.753H28.4a.893.893,0,0,0,.893-.893V21.48a.893.893,0,0,0-.934-.893,25.872,25.872,0,0,0-3.086.3V17.907A4.467,4.467,0,0,0,29.3,13.44ZM24.829,9.867a3.573,3.573,0,0,1,.447,7.115V16.3l1.21-1.206a.448.448,0,0,0-.634-.634l-.576.581v-2.5a.447.447,0,1,0-.893,0v.71l-.576-.581a.448.448,0,1,0-.634.634l1.21,1.206v2.461a3.377,3.377,0,0,1-1.492-.549,3.573,3.573,0,0,0-1.474-1.961,3.573,3.573,0,0,1,3.413-4.6Zm-8.04,7.593a2.68,2.68,0,1,1,3.127,2.64v-.67l1.21-1.206a.448.448,0,0,0-.634-.634l-.576.581V17.013a.447.447,0,0,0-.893,0v.71l-.576-.581a.448.448,0,0,0-.634.634l1.21,1.206V20.1a2.68,2.68,0,0,1-2.233-2.64ZM28.4,21.48v9.38H4.6A41.093,41.093,0,0,1,19.023,23.2v1.407a.447.447,0,1,0,.893,0V22.941a43.045,43.045,0,0,1,4.467-1.014v.893a.447.447,0,1,0,.893,0V21.8C26.768,21.587,27.862,21.516,28.4,21.48Zm-8.487.536V21a3.573,3.573,0,0,0,3.127-3.471,4.467,4.467,0,0,0,1.34.375v3.127A43.979,43.979,0,0,0,19.916,22.016Z" transform="translate(-2.49 -4.975)" fill="#fff"/>
</svg>
