<svg id="_017---Greenbelt" data-name="017---Greenbelt" xmlns="http://www.w3.org/2000/svg" width="40.202" height="40.16" viewBox="0 0 40.202 40.16">
  <path id="Shape" d="M3.179,36.19A63.637,63.637,0,0,1,21.614,25.9a1.34,1.34,0,0,0,.147-2.438,35.738,35.738,0,0,0-5.359-2.11v-3.3a5.359,5.359,0,1,0-2.07-10.477,6.7,6.7,0,1,0-7.308,5.835V19.8a29.093,29.093,0,0,0-4.883.255A1.34,1.34,0,0,0,1,21.4V35.158A1.34,1.34,0,0,0,3.179,36.19ZM19.752,12.744A4.019,4.019,0,0,1,16.4,16.7V15.028l1.815-1.809a.673.673,0,1,0-.951-.951l-.864.871V12.074a.67.67,0,0,0-1.34,0v1.735l-.864-.871a.673.673,0,1,0-.951.951L15.063,15.7v1a4.019,4.019,0,1,1,4.689-3.959ZM2.335,6.715A5.359,5.359,0,1,1,12.812,8.256,5.359,5.359,0,0,0,10.6,11.2a5.064,5.064,0,0,1-2.237.824V8.329L10.18,6.521a.673.673,0,0,0-.951-.951l-.864.871V5.375a.67.67,0,0,0-1.34,0V9.12L6.16,8.249a.673.673,0,0,0-.951.951l1.815,1.809v1.018A5.359,5.359,0,0,1,2.335,6.715Zm6.029,6.7a6.7,6.7,0,0,0,2.01-.529,5.359,5.359,0,0,0,4.689,5.2v2.887a35.5,35.5,0,0,0-6.7-1.105ZM2.335,21.345a28.088,28.088,0,0,1,4.79-.228.67.67,0,0,0,1.105.054,34.164,34.164,0,0,1,6.833,1.159v1.132a.67.67,0,0,0,1.34,0v-.737a35.316,35.316,0,0,1,4.763,1.909A65.032,65.032,0,0,0,2.335,35.158Z" transform="translate(-0.987 -0.049)" fill=""/>
  <path id="Shape-2" data-name="Shape" d="M42.085,15.683a6.7,6.7,0,1,0-13.337.864,5.359,5.359,0,1,0-2.07,10.477v1.9A63.056,63.056,0,0,0,4.2,40.77a1.34,1.34,0,0,0,.851,2.378h35.7a1.34,1.34,0,0,0,1.34-1.34V27.741a1.34,1.34,0,0,0-1.4-1.34,38.8,38.8,0,0,0-4.629.456V22.382a6.7,6.7,0,0,0,6.029-6.7Zm-6.7-5.359A5.359,5.359,0,0,1,36.056,21V19.977l1.815-1.809a.673.673,0,1,0-.951-.951l-.864.871V14.343a.67.67,0,1,0-1.34,0v1.065l-.864-.871a.673.673,0,0,0-.951.951L34.717,17.3v3.691a5.064,5.064,0,0,1-2.237-.824,5.359,5.359,0,0,0-2.211-2.941,5.359,5.359,0,0,1,5.118-6.9ZM23.329,21.712a4.019,4.019,0,1,1,4.689,3.959v-1l1.815-1.809a.673.673,0,1,0-.951-.951l-.864.871V21.042a.67.67,0,0,0-1.34,0v1.065l-.864-.871a.673.673,0,1,0-.951.951L26.678,24v1.675a4.019,4.019,0,0,1-3.349-3.959Zm17.417,6.029V41.808H5.048A61.629,61.629,0,0,1,26.678,30.32v2.11a.67.67,0,1,0,1.34,0v-2.5a64.556,64.556,0,0,1,6.7-1.521v1.34a.67.67,0,1,0,1.34,0V28.223C38.294,27.9,39.935,27.794,40.745,27.741Zm-12.728.8V27.024a5.359,5.359,0,0,0,4.689-5.2,6.7,6.7,0,0,0,2.01.563v4.689A65.957,65.957,0,0,0,28.018,28.545Z" transform="translate(-1.884 -2.988)" fill=""/>
</svg>
