<svg id="Group_4911" data-name="Group 4911" xmlns="http://www.w3.org/2000/svg" width="18.354" height="25.61" viewBox="0 0 18.354 25.61">
  <g id="street-light">
    <path id="Path_5148" data-name="Path 5148" d="M18.292,12.174a.426.426,0,0,0,.015-.417L16.218,7.694s0-.007,0-.011V5.976a1.273,1.273,0,0,0-.427-.947V4.7A4.7,4.7,0,0,0,11.1,0H6.83a4.7,4.7,0,0,0-4.7,4.7v8.148A2.563,2.563,0,0,0,0,15.366v9.817a.427.427,0,0,0,.427.427H7.257a.427.427,0,0,0,.427-.427V15.366a2.563,2.563,0,0,0-2.134-2.522V4.7A1.282,1.282,0,0,1,6.83,3.415H11.1A1.282,1.282,0,0,1,12.378,4.7v.333a1.273,1.273,0,0,0-.427.947V7.683s0,.007,0,.011L9.865,11.756a.427.427,0,0,0,.38.622h1.28v.854a2.137,2.137,0,0,0,2.134,2.134h.854a2.137,2.137,0,0,0,2.134-2.134v-.854h1.28a.427.427,0,0,0,.364-.2Zm-5.486-6.2a.427.427,0,0,1,.427-.427H14.94a.427.427,0,0,1,.427.427V7.256H12.805ZM6.83,15.366v9.39H2.561v-6.4a.427.427,0,1,0-.854,0v6.4H.854v-9.39a1.709,1.709,0,0,1,1.707-1.707H5.122A1.709,1.709,0,0,1,6.83,15.366ZM11.1,2.561H6.83A2.137,2.137,0,0,0,4.7,4.7V12.8H2.988V4.7A3.846,3.846,0,0,1,6.83.854H11.1A3.846,3.846,0,0,1,14.94,4.7H13.232A2.137,2.137,0,0,0,11.1,2.561Zm4.7,10.671a1.282,1.282,0,0,1-1.281,1.28h-.854a1.282,1.282,0,0,1-1.281-1.28v-.854h3.415Zm.427-1.708H10.944L12.7,8.11h2.772l1.756,3.415Zm0,0" transform="translate(0 0)" fill="#fff"/>
    <path id="Path_5149" data-name="Path 5149" d="M34.56,315.734a.427.427,0,0,0-.427.427v.427a.427.427,0,0,0,.854,0v-.427A.427.427,0,0,0,34.56,315.734Zm0,0" transform="translate(-32.426 -299.941)" fill="#fff"/>
    <path id="Path_5150" data-name="Path 5150" d="M273.92,334.935v-1.707a.427.427,0,0,0-.854,0v1.707a.427.427,0,1,0,.854,0Zm0,0" transform="translate(-259.408 -316.154)" fill="#fff"/>
    <path id="Path_5151" data-name="Path 5151" d="M205.225,321.413a.426.426,0,0,0,.37-.213l.854-1.479a.427.427,0,0,0-.74-.427l-.854,1.478a.427.427,0,0,0,.369.64Zm0,0" transform="translate(-194.555 -303.12)" fill="#fff"/>
    <path id="Path_5152" data-name="Path 5152" d="M324.478,319.136a.426.426,0,0,0-.156.583l.854,1.479a.427.427,0,1,0,.739-.427l-.854-1.478a.426.426,0,0,0-.583-.156Zm0,0" transform="translate(-308.045 -303.118)" fill="#fff"/>
  </g>
</svg>
