<svg id="Group_4784" data-name="Group 4784" xmlns="http://www.w3.org/2000/svg" width="29.219" height="40.77" viewBox="0 0 29.219 40.77">
  <g id="street-light">
    <path id="Path_5148" data-name="Path 5148" d="M29.12,19.38a.678.678,0,0,0,.025-.664l-3.326-6.468c0-.006,0-.011,0-.017V9.513A2.026,2.026,0,0,0,25.142,8v-.53A7.483,7.483,0,0,0,17.668,0H10.873A7.483,7.483,0,0,0,3.4,7.475V20.446A4.08,4.08,0,0,0,0,24.462V40.091a.68.68,0,0,0,.68.68H11.552a.68.68,0,0,0,.68-.68V24.462a4.08,4.08,0,0,0-3.4-4.016V7.475a2.041,2.041,0,0,1,2.039-2.039h6.795a2.041,2.041,0,0,1,2.038,2.039V8a2.026,2.026,0,0,0-.679,1.508v2.718c0,.006,0,.011,0,.017L15.7,18.716a.679.679,0,0,0,.6.99h2.038v1.359a3.4,3.4,0,0,0,3.4,3.4H23.1a3.4,3.4,0,0,0,3.4-3.4V19.705h2.038a.68.68,0,0,0,.58-.326ZM20.386,9.513a.68.68,0,0,1,.68-.679h2.718a.68.68,0,0,1,.679.679v2.039H20.386ZM10.873,24.462V39.411h-6.8V29.219a.679.679,0,1,0-1.359,0V39.411H1.359V24.462a2.721,2.721,0,0,1,2.718-2.718H8.154A2.721,2.721,0,0,1,10.873,24.462ZM17.668,4.077H10.873a3.4,3.4,0,0,0-3.4,3.4V20.385H4.757V7.475a6.122,6.122,0,0,1,6.116-6.116h6.795a6.122,6.122,0,0,1,6.116,6.116H21.065a3.4,3.4,0,0,0-3.4-3.4Zm7.475,16.988A2.041,2.041,0,0,1,23.1,23.1H21.744a2.041,2.041,0,0,1-2.039-2.038V19.705h5.436Zm.679-2.718h-8.4l2.8-5.436H24.63l2.8,5.436Zm0,0" transform="translate(0 0)" fill="#aeadae"/>
    <path id="Path_5149" data-name="Path 5149" d="M34.812,315.734a.679.679,0,0,0-.68.679v.68a.679.679,0,0,0,1.359,0v-.68A.679.679,0,0,0,34.812,315.734Zm0,0" transform="translate(-31.415 -290.592)" fill="#aeadae"/>
    <path id="Path_5150" data-name="Path 5150" d="M274.426,336.2V333.48a.68.68,0,0,0-1.359,0V336.2a.68.68,0,1,0,1.359,0Zm0,0" transform="translate(-251.322 -306.3)" fill="#aeadae"/>
    <path id="Path_5151" data-name="Path 5151" d="M205.477,322.794a.679.679,0,0,0,.589-.34l1.359-2.354a.68.68,0,0,0-1.177-.679l-1.359,2.353a.68.68,0,0,0,.588,1.019Zm0,0" transform="translate(-188.491 -293.673)" fill="#aeadae"/>
    <path id="Path_5152" data-name="Path 5152" d="M324.6,319.17a.679.679,0,0,0-.249.928l1.359,2.354a.68.68,0,1,0,1.177-.68l-1.359-2.353a.679.679,0,0,0-.928-.249Zm0,0" transform="translate(-298.443 -293.67)" fill="#aeadae"/>
  </g>
</svg>
