<svg id="tower" xmlns="http://www.w3.org/2000/svg" width="40.73" height="40.739" viewBox="0 0 40.73 40.739">
  <g id="Group_4790" data-name="Group 4790">
    <g id="Group_4789" data-name="Group 4789">
      <path id="Path_5161" data-name="Path 5161" d="M35.352,40.381h-1.6L26.16,24a12.219,12.219,0,1,0-11.485,0L7.086,40.381H.731a.679.679,0,1,0,0,1.358H35.352a.679.679,0,0,0,0-1.358Zm-5.472-5.12a17.875,17.875,0,0,0-2.2-1.668h1.427Zm-3.543-7.645,1.931,4.166L22.21,29.3ZM19.6,16.606s.005-.006.007-.009,0-.008,0-.012l.808-1.743.808,1.743s0,.008,0,.012.006.008.009.013L22.5,19.337H18.334Zm-1.9-3.379a2.715,2.715,0,1,1,4.434,2.094l-.487-1.05a1.357,1.357,0,0,0-2.463,0l-.487,1.05A2.728,2.728,0,0,1,17.7,13.227Zm3.991,7.467-1.276.911-1.276-.911Zm1.66.483,1.75,3.775L21.585,22.44Zm-.634-4.6a4.073,4.073,0,1,0-4.6,0l-1.148,2.477a6.788,6.788,0,1,1,6.9,0Zm-5.238,4.6,1.768,1.263-3.517,2.512Zm2.936,2.1,3.991,2.851H16.426Zm2.657,4.209L20.417,28.57,17.76,27.483Zm2.715,4.752H15.045l5.373-2.2ZM9.556,13.227a10.861,10.861,0,1,1,16.033,9.546l-1.144-2.468a8.146,8.146,0,1,0-8.056,0l-1.144,2.468A10.885,10.885,0,0,1,9.556,13.227ZM14.5,27.616,18.624,29.3l-6.057,2.478Zm-2.77,5.977h1.427a17.875,17.875,0,0,0-2.2,1.668ZM8.582,40.381l.7-1.515a.641.641,0,0,0,.118-.092c.042-.052,4.284-5.182,7.621-5.182h6.788c3.336,0,7.578,5.13,7.621,5.182a.641.641,0,0,0,.118.092l.7,1.515Z" transform="translate(-0.052 -1)" fill="#aeadae"/>
      <path id="Path_5162" data-name="Path 5162" d="M472.1,496.037h-2.037a.679.679,0,0,0,0,1.358H472.1a.679.679,0,0,0,0-1.358Z" transform="translate(-432.05 -456.656)" fill="#aeadae"/>
    </g>
  </g>
</svg>
