<svg xmlns="http://www.w3.org/2000/svg" width="30" height="20.009" viewBox="0 0 30 20.009">
  <g id="Group_5851" data-name="Group 5851" transform="translate(-27 -437)">
    <path id="ic_screen_share_24px" d="M25,21.508a2.5,2.5,0,0,0,2.487-2.5L27.5,6.5A2.5,2.5,0,0,0,25,4H5A2.492,2.492,0,0,0,2.5,6.5V19.007a2.5,2.5,0,0,0,2.5,2.5H0v2.5H30v-2.5Zm-8.75-4.415V14.355c-3.475,0-5.763,1.063-7.5,3.4.7-3.339,2.637-6.666,7.5-7.341V7.752l5,4.665-5,4.677Z" transform="translate(27 433)" fill="#fff" opacity="0.5"/>
    <path id="ic_screen_share_24px-2" data-name="ic_screen_share_24px" d="M16.25,17.094V14.355c-3.475,0-5.763,1.063-7.5,3.4.7-3.339,2.637-6.666,7.5-7.341V7.752l5,4.665-5,4.677Z" transform="translate(27 433)" fill="#fff"/>
  </g>
</svg>
