<svg xmlns="http://www.w3.org/2000/svg" width="28.508" height="22.569" viewBox="0 0 28.508 22.569">
  <g id="megaphone" transform="translate(0 -3)">
    <path id="Path_2373" data-name="Path 2373" d="M21.348,3.064,6.659,8.939H2.673A2.677,2.677,0,0,0,0,11.612v3.267a2.426,2.426,0,0,0,2.673,2.376h1.01L4.761,24.8a.89.89,0,0,0,.881.765H9.206a.89.89,0,0,0,.886-.991l-.7-6.231,11.955,4.782a.89.89,0,0,0,1.222-.827V3.891a.89.89,0,0,0-1.221-.827Z" fill="#fff" opacity="0.5"/>
    <path id="Path_2374" data-name="Path 2374" d="M21.448,9.962l2.97-2.376A.892.892,0,1,0,23.3,6.195L20.334,8.57a.892.892,0,0,0,1.114,1.392Z" transform="translate(3.756 0.564)" fill="#fff"/>
    <path id="Path_2375" data-name="Path 2375" d="M21.448,14.695a.892.892,0,1,0-1.114,1.392l2.97,2.376a.892.892,0,1,0,1.114-1.392Z" transform="translate(3.756 2.16)" fill="#fff"/>
    <path id="Path_2376" data-name="Path 2376" d="M23.86,11.25h-2.97a.891.891,0,1,0,0,1.782h2.97a.891.891,0,1,0,0-1.782Z" transform="translate(3.756 1.55)" fill="#fff"/>
  </g>
</svg>
